<svg xmlns="http://www.w3.org/2000/svg" viewBox="0 0 980 551" width="980" height="551">
  <defs>
    <linearGradient id="bg" x1="0" x2="1" y1="0" y2="1">
      <stop offset="0" stop-color="#02060d"/><stop offset="0.55" stop-color="#071627"/><stop offset="1" stop-color="#09091d"/>
    </linearGradient>
    <radialGradient id="r1" cx="72%" cy="34%" r="28%"><stop offset="0" stop-color="#5de6ff" stop-opacity=".34"/><stop offset="1" stop-color="#5de6ff" stop-opacity="0"/></radialGradient>
    <radialGradient id="r2" cx="84%" cy="66%" r="32%"><stop offset="0" stop-color="#a978ff" stop-opacity=".28"/><stop offset="1" stop-color="#a978ff" stop-opacity="0"/></radialGradient>
    <filter id="glow"><feGaussianBlur stdDeviation="4" result="b"/><feMerge><feMergeNode in="b"/><feMergeNode in="SourceGraphic"/></feMerge></filter>
  </defs>
  <rect width="980" height="551" fill="url(#bg)"/><rect width="980" height="551" fill="url(#r1)"/><rect width="980" height="551" fill="url(#r2)"/>
  <g opacity=".16" stroke="#86edff" stroke-width="1">
    <path d="M420 440 L602 300 L745 348 L882 190"/><path d="M492 146 L602 300 L785 98"/><path d="M602 300 L870 430"/><path d="M745 348 L930 285"/>
  </g>
  <g fill="#c9fbff" filter="url(#glow)">
    <circle cx="602" cy="300" r="4"/><circle cx="745" cy="348" r="3"/><circle cx="882" cy="190" r="3"/><circle cx="785" cy="98" r="2.5"/><circle cx="870" cy="430" r="2.5"/><circle cx="930" cy="285" r="2.5"/>
  </g>
  <g opacity=".10" stroke="#d7f8ff" stroke-width="1">
    <path d="M0 455 H980"/><path d="M0 505 H980"/><path d="M520 0 V551"/><path d="M620 0 V551"/><path d="M720 0 V551"/><path d="M820 0 V551"/><path d="M920 0 V551"/>
  </g>
</svg>
